<svg xmlns="http://www.w3.org/2000/svg" xmlns:xlink="http://www.w3.org/1999/xlink" version="1.1" class="marks" width="568" height="377" viewBox="0 0 568 377"><rect width="568" height="377" fill="white"/><g fill="none" stroke-miterlimit="10" transform="translate(40,60)"><g class="mark-group role-frame root" role="graphics-object" aria-roledescription="group mark container"><g transform="translate(0,0)"><path class="background" aria-hidden="true" d="M0.5,0.5h450v280h-450Z" stroke="#ddd"/><g><g class="mark-group role-axis" aria-hidden="true"><g transform="translate(0.5,280.5)"><path class="background" aria-hidden="true" d="M0,0h0v0h0Z" pointer-events="none"/><g><g class="mark-rule role-axis-grid" pointer-events="none"><line transform="translate(0,-280)" x2="0" y2="280" stroke="#ddd" stroke-width="1" opacity="1"/><line transform="translate(38,-280)" x2="0" y2="280" stroke="#ddd" stroke-width="1" opacity="1"/><line transform="translate(75,-280)" x2="0" y2="280" stroke="#ddd" stroke-width="1" opacity="1"/><line transform="translate(113,-280)" x2="0" y2="280" stroke="#ddd" stroke-width="1" opacity="1"/><line transform="translate(150,-280)" x2="0" y2="280" stroke="#ddd" stroke-width="1" opacity="1"/><line transform="translate(188,-280)" x2="0" y2="280" stroke="#ddd" stroke-width="1" opacity="1"/><line transform="translate(225,-280)" x2="0" y2="280" stroke="#ddd" stroke-width="1" opacity="1"/><line transform="translate(262,-280)" x2="0" y2="280" stroke="#ddd" stroke-width="1" opacity="1"/><line transform="translate(300,-280)" x2="0" y2="280" stroke="#ddd" stroke-width="1" opacity="1"/><line transform="translate(338,-280)" x2="0" y2="280" stroke="#ddd" stroke-width="1" opacity="1"/><line transform="translate(375,-280)" x2="0" y2="280" stroke="#ddd" stroke-width="1" opacity="1"/><line transform="translate(413,-280)" x2="0" y2="280" stroke="#ddd" stroke-width="1" opacity="1"/><line transform="translate(450,-280)" x2="0" y2="280" stroke="#ddd" stroke-width="1" opacity="1"/></g></g><path class="foreground" aria-hidden="true" d="" pointer-events="none" display="none"/></g></g><g class="mark-group role-axis" aria-hidden="true"><g transform="translate(0.5,0.5)"><path class="background" aria-hidden="true" d="M0,0h0v0h0Z" pointer-events="none"/><g><g class="mark-rule role-axis-grid" pointer-events="none"><line transform="translate(0,280)" x2="450" y2="0" stroke="#ddd" stroke-width="1" opacity="1"/><line transform="translate(0,224)" x2="450" y2="0" stroke="#ddd" stroke-width="1" opacity="1"/><line transform="translate(0,168)" x2="450" y2="0" stroke="#ddd" stroke-width="1" opacity="1"/><line transform="translate(0,112)" x2="450" y2="0" stroke="#ddd" stroke-width="1" opacity="1"/><line transform="translate(0,56)" x2="450" y2="0" stroke="#ddd" stroke-width="1" opacity="1"/><line transform="translate(0,0)" x2="450" y2="0" stroke="#ddd" stroke-width="1" opacity="1"/></g></g><path class="foreground" aria-hidden="true" d="" pointer-events="none" display="none"/></g></g><g class="mark-group role-axis" role="graphics-symbol" aria-roledescription="axis" aria-label="X-axis titled 'pH' for a linear scale with values from 6.8 to 9.2"><g transform="translate(0.5,280.5)"><path class="background" aria-hidden="true" d="M0,0h0v0h0Z" pointer-events="none"/><g><g class="mark-rule role-axis-tick" pointer-events="none"><line transform="translate(0,0)" x2="0" y2="5" stroke="#888" stroke-width="1" opacity="1"/><line transform="translate(38,0)" x2="0" y2="5" stroke="#888" stroke-width="1" opacity="1"/><line transform="translate(75,0)" x2="0" y2="5" stroke="#888" stroke-width="1" opacity="1"/><line transform="translate(113,0)" x2="0" y2="5" stroke="#888" stroke-width="1" opacity="1"/><line transform="translate(150,0)" x2="0" y2="5" stroke="#888" stroke-width="1" opacity="1"/><line transform="translate(188,0)" x2="0" y2="5" stroke="#888" stroke-width="1" opacity="1"/><line transform="translate(225,0)" x2="0" y2="5" stroke="#888" stroke-width="1" opacity="1"/><line transform="translate(262,0)" x2="0" y2="5" stroke="#888" stroke-width="1" opacity="1"/><line transform="translate(300,0)" x2="0" y2="5" stroke="#888" stroke-width="1" opacity="1"/><line transform="translate(338,0)" x2="0" y2="5" stroke="#888" stroke-width="1" opacity="1"/><line transform="translate(375,0)" x2="0" y2="5" stroke="#888" stroke-width="1" opacity="1"/><line transform="translate(413,0)" x2="0" y2="5" stroke="#888" stroke-width="1" opacity="1"/><line transform="translate(450,0)" x2="0" y2="5" stroke="#888" stroke-width="1" opacity="1"/></g><g class="mark-text role-axis-label" pointer-events="none"><text text-anchor="start" transform="translate(0,15)" font-family="sans-serif" font-size="10px" fill="#000" opacity="1">6.8</text><text text-anchor="middle" transform="translate(37.50000000000004,15)" font-family="sans-serif" font-size="10px" fill="#000" opacity="1">7.0</text><text text-anchor="middle" transform="translate(75.00000000000009,15)" font-family="sans-serif" font-size="10px" fill="#000" opacity="1">7.2</text><text text-anchor="middle" transform="translate(112.50000000000013,15)" font-family="sans-serif" font-size="10px" fill="#000" opacity="1">7.4</text><text text-anchor="middle" transform="translate(150,15)" font-family="sans-serif" font-size="10px" fill="#000" opacity="1">7.6</text><text text-anchor="middle" transform="translate(187.50000000000003,15)" font-family="sans-serif" font-size="10px" fill="#000" opacity="1">7.8</text><text text-anchor="middle" transform="translate(225.0000000000001,15)" font-family="sans-serif" font-size="10px" fill="#000" opacity="1">8.0</text><text text-anchor="middle" transform="translate(262.49999999999994,15)" font-family="sans-serif" font-size="10px" fill="#000" opacity="1">8.2</text><text text-anchor="middle" transform="translate(300.00000000000017,15)" font-family="sans-serif" font-size="10px" fill="#000" opacity="1">8.4</text><text text-anchor="middle" transform="translate(337.50000000000006,15)" font-family="sans-serif" font-size="10px" fill="#000" opacity="1">8.6</text><text text-anchor="middle" transform="translate(375.0000000000003,15)" font-family="sans-serif" font-size="10px" fill="#000" opacity="1">8.8</text><text text-anchor="middle" transform="translate(412.5000000000001,15)" font-family="sans-serif" font-size="10px" fill="#000" opacity="1">9.0</text><text text-anchor="end" transform="translate(450,15)" font-family="sans-serif" font-size="10px" fill="#000" opacity="1">9.2</text></g><g class="mark-rule role-axis-domain" pointer-events="none"><line transform="translate(0,0)" x2="450" y2="0" stroke="#888" stroke-width="1" opacity="1"/></g><g class="mark-text role-axis-title" pointer-events="none"><text text-anchor="middle" transform="translate(225,30)" font-family="sans-serif" font-size="11px" font-weight="bold" fill="#000" opacity="1">pH</text></g></g><path class="foreground" aria-hidden="true" d="" pointer-events="none" display="none"/></g></g><g class="mark-group role-axis" role="graphics-symbol" aria-roledescription="axis" aria-label="Y-axis titled '% of TAN as Toxic NH₃' for a linear scale with values from 0 to 50"><g transform="translate(0.5,0.5)"><path class="background" aria-hidden="true" d="M0,0h0v0h0Z" pointer-events="none"/><g><g class="mark-rule role-axis-tick" pointer-events="none"><line transform="translate(0,280)" x2="-5" y2="0" stroke="#888" stroke-width="1" opacity="1"/><line transform="translate(0,224)" x2="-5" y2="0" stroke="#888" stroke-width="1" opacity="1"/><line transform="translate(0,168)" x2="-5" y2="0" stroke="#888" stroke-width="1" opacity="1"/><line transform="translate(0,112)" x2="-5" y2="0" stroke="#888" stroke-width="1" opacity="1"/><line transform="translate(0,56)" x2="-5" y2="0" stroke="#888" stroke-width="1" opacity="1"/><line transform="translate(0,0)" x2="-5" y2="0" stroke="#888" stroke-width="1" opacity="1"/></g><g class="mark-text role-axis-label" pointer-events="none"><text text-anchor="end" transform="translate(-7,283)" font-family="sans-serif" font-size="10px" fill="#000" opacity="1">0</text><text text-anchor="end" transform="translate(-7,227)" font-family="sans-serif" font-size="10px" fill="#000" opacity="1">10</text><text text-anchor="end" transform="translate(-7,171)" font-family="sans-serif" font-size="10px" fill="#000" opacity="1">20</text><text text-anchor="end" transform="translate(-7,115)" font-family="sans-serif" font-size="10px" fill="#000" opacity="1">30</text><text text-anchor="end" transform="translate(-7,58.999999999999986)" font-family="sans-serif" font-size="10px" fill="#000" opacity="1">40</text><text text-anchor="end" transform="translate(-7,3)" font-family="sans-serif" font-size="10px" fill="#000" opacity="1">50</text></g><g class="mark-rule role-axis-domain" pointer-events="none"><line transform="translate(0,280)" x2="0" y2="-280" stroke="#888" stroke-width="1" opacity="1"/></g><g class="mark-text role-axis-title" pointer-events="none"><text text-anchor="middle" transform="translate(-23.724609375,140) rotate(-90) translate(0,-2)" font-family="sans-serif" font-size="11px" font-weight="bold" fill="#000" opacity="1">% of TAN as Toxic NH₃</text></g></g><path class="foreground" aria-hidden="true" d="" pointer-events="none" display="none"/></g></g><g class="mark-area role-mark layer_0_marks" role="graphics-object" aria-roledescription="area mark container"><path aria-label="pH: 7; % of TAN as Toxic NH₃: 1" role="graphics-symbol" aria-roledescription="area mark" d="M37.5,274.4L131.25,263.2L225,235.2L318.75,156.8L412.5,0L412.5,280L318.75,280L225,280L131.25,280L37.5,280Z" fill="#F44336" opacity="0.2"/></g><g class="mark-line role-mark layer_1_marks" role="graphics-object" aria-roledescription="line mark container"><path aria-label="pH: 7; pct: 1" role="graphics-symbol" aria-roledescription="line mark" d="M37.5,274.4L131.25,263.2L225,235.2L318.75,156.8L412.5,0" stroke="#D32F2F" stroke-width="3"/></g><g class="mark-symbol role-mark layer_2_marks" role="graphics-object" aria-roledescription="symbol mark container"><path aria-label="pH: 7; pct: 1; Zone: Safe" role="graphics-symbol" aria-roledescription="point" transform="translate(37.50000000000004,274.4)" d="M5.477,0A5.477,5.477,0,1,1,-5.477,0A5.477,5.477,0,1,1,5.477,0" fill="#4CAF50" stroke-width="2" opacity="0.7"/><path aria-label="pH: 7.5; pct: 3; Zone: Safe" role="graphics-symbol" aria-roledescription="point" transform="translate(131.25000000000006,263.2)" d="M5.477,0A5.477,5.477,0,1,1,-5.477,0A5.477,5.477,0,1,1,5.477,0" fill="#4CAF50" stroke-width="2" opacity="0.7"/><path aria-label="pH: 8; pct: 8; Zone: Caution" role="graphics-symbol" aria-roledescription="point" transform="translate(225.0000000000001,235.2)" d="M5.477,0A5.477,5.477,0,1,1,-5.477,0A5.477,5.477,0,1,1,5.477,0" fill="#FF9800" stroke-width="2" opacity="0.7"/><path aria-label="pH: 8.5; pct: 22; Zone: Danger" role="graphics-symbol" aria-roledescription="point" transform="translate(318.7500000000001,156.8)" d="M5.477,0A5.477,5.477,0,1,1,-5.477,0A5.477,5.477,0,1,1,5.477,0" fill="#F44336" stroke-width="2" opacity="0.7"/><path aria-label="pH: 9; pct: 50; Zone: Danger" role="graphics-symbol" aria-roledescription="point" transform="translate(412.5000000000001,0)" d="M5.477,0A5.477,5.477,0,1,1,-5.477,0A5.477,5.477,0,1,1,5.477,0" fill="#F44336" stroke-width="2" opacity="0.7"/></g><g class="mark-text role-mark layer_3_marks" role="graphics-object" aria-roledescription="text mark container"><text aria-label="pH: 7; pct: 1; label: 1%" role="graphics-symbol" aria-roledescription="text mark" text-anchor="middle" transform="translate(37.50000000000004,263.4)" font-family="sans-serif" font-size="13px" font-weight="bold" fill="black">1%</text><text aria-label="pH: 7.5; pct: 3; label: 3%" role="graphics-symbol" aria-roledescription="text mark" text-anchor="middle" transform="translate(131.25000000000006,252.2)" font-family="sans-serif" font-size="13px" font-weight="bold" fill="black">3%</text><text aria-label="pH: 8; pct: 8; label: 8%" role="graphics-symbol" aria-roledescription="text mark" text-anchor="middle" transform="translate(225.0000000000001,224.2)" font-family="sans-serif" font-size="13px" font-weight="bold" fill="black">8%</text><text aria-label="pH: 8.5; pct: 22; label: 22%" role="graphics-symbol" aria-roledescription="text mark" text-anchor="middle" transform="translate(318.7500000000001,145.8)" font-family="sans-serif" font-size="13px" font-weight="bold" fill="black">22%</text><text aria-label="pH: 9; pct: 50; label: 50%" role="graphics-symbol" aria-roledescription="text mark" text-anchor="middle" transform="translate(412.5000000000001,-11)" font-family="sans-serif" font-size="13px" font-weight="bold" fill="black">50%</text></g><g class="mark-group role-legend" role="graphics-symbol" aria-roledescription="legend" aria-label="Symbol legend titled 'Zone' for fill color with 3 values: Safe, Caution, Danger"><g transform="translate(468,0)"><path class="background" aria-hidden="true" d="M0,0h55v53h-55Z" pointer-events="none"/><g><g class="mark-group role-legend-entry"><g transform="translate(0,16)"><path class="background" aria-hidden="true" d="M0,0h0v0h0Z" pointer-events="none"/><g><g class="mark-group role-scope" role="graphics-object" aria-roledescription="group mark container"><g transform="translate(0,0)"><path class="background" aria-hidden="true" d="M0,0h54.603515625v11h-54.603515625Z" pointer-events="none" opacity="1"/><g><g class="mark-symbol role-legend-symbol" pointer-events="none"><path transform="translate(6,6)" d="M5,0A5,5,0,1,1,-5,0A5,5,0,1,1,5,0" fill="#4CAF50" stroke-width="1.5" opacity="0.7"/></g><g class="mark-text role-legend-label" pointer-events="none"><text text-anchor="start" transform="translate(16,9)" font-family="sans-serif" font-size="10px" fill="#000" opacity="1">Safe</text></g></g><path class="foreground" aria-hidden="true" d="" pointer-events="none" display="none"/></g><g transform="translate(0,13)"><path class="background" aria-hidden="true" d="M0,0h54.603515625v11h-54.603515625Z" pointer-events="none" opacity="1"/><g><g class="mark-symbol role-legend-symbol" pointer-events="none"><path transform="translate(6,6)" d="M5,0A5,5,0,1,1,-5,0A5,5,0,1,1,5,0" fill="#FF9800" stroke-width="1.5" opacity="0.7"/></g><g class="mark-text role-legend-label" pointer-events="none"><text text-anchor="start" transform="translate(16,9)" font-family="sans-serif" font-size="10px" fill="#000" opacity="1">Caution</text></g></g><path class="foreground" aria-hidden="true" d="" pointer-events="none" display="none"/></g><g transform="translate(0,26)"><path class="background" aria-hidden="true" d="M0,0h54.603515625v11h-54.603515625Z" pointer-events="none" opacity="1"/><g><g class="mark-symbol role-legend-symbol" pointer-events="none"><path transform="translate(6,6)" d="M5,0A5,5,0,1,1,-5,0A5,5,0,1,1,5,0" fill="#F44336" stroke-width="1.5" opacity="0.7"/></g><g class="mark-text role-legend-label" pointer-events="none"><text text-anchor="start" transform="translate(16,9)" font-family="sans-serif" font-size="10px" fill="#000" opacity="1">Danger</text></g></g><path class="foreground" aria-hidden="true" d="" pointer-events="none" display="none"/></g></g></g><path class="foreground" aria-hidden="true" d="" pointer-events="none" display="none"/></g></g><g class="mark-text role-legend-title" pointer-events="none"><text text-anchor="start" transform="translate(0,9)" font-family="sans-serif" font-size="11px" font-weight="bold" fill="#000" opacity="1">Zone</text></g></g><path class="foreground" aria-hidden="true" d="" pointer-events="none" display="none"/></g></g><g class="mark-group role-title"><g transform="translate(225,-55)"><path class="background" aria-hidden="true" d="M0,0h0v0h0Z" pointer-events="none"/><g><g class="mark-text role-title-text" role="graphics-symbol" aria-roledescription="title" aria-label="Title text 'pH vs Ammonia Toxicity (at 28°C)'" pointer-events="none"><text text-anchor="middle" transform="translate(0,13)" font-family="sans-serif" font-size="16px" font-weight="bold" fill="#000" opacity="1">pH vs Ammonia Toxicity (at 28°C)</text></g><g class="mark-text role-title-subtitle" role="graphics-symbol" aria-roledescription="subtitle" aria-label="Subtitle text 'Higher pH = MORE toxic ammonia'" pointer-events="none"><text text-anchor="middle" transform="translate(0,28)" font-family="sans-serif" font-size="12px" fill="#000" opacity="1">Higher pH = MORE toxic ammonia</text></g></g><path class="foreground" aria-hidden="true" d="" pointer-events="none" display="none"/></g></g></g><path class="foreground" aria-hidden="true" d="" display="none"/></g></g></g></svg>